<?xml version="1.0" encoding="UTF-8"?><svg xmlns="http://www.w3.org/2000/svg" xmlns:xlink="http://www.w3.org/1999/xlink" fill-opacity="1" color-rendering="auto" color-interpolation="auto" text-rendering="auto" stroke="black" stroke-linecap="square" width="439" stroke-miterlimit="10" shape-rendering="auto" stroke-opacity="1" fill="black" stroke-dasharray="none" font-weight="normal" stroke-width="1" height="364" font-family="'Dialog'" font-style="normal" stroke-linejoin="miter" font-size="12px" stroke-dashoffset="0" image-rendering="auto">
  <!--Generated by ySVG 2.6-->
  <defs id="genericDefs"/>
  <g>
    <defs id="defs1">
      <linearGradient x1="1118" gradientUnits="userSpaceOnUse" x2="1198" y1="422" y2="462" id="linearGradient1" spreadMethod="reflect">
        <stop stop-opacity="1" stop-color="rgb(232,238,247)" offset="0%"/>
        <stop stop-opacity="1" stop-color="rgb(183,201,227)" offset="100%"/>
      </linearGradient>
      <linearGradient x1="1118" gradientUnits="userSpaceOnUse" x2="1198" y1="567" y2="607" id="linearGradient2" spreadMethod="reflect">
        <stop stop-opacity="1" stop-color="rgb(232,238,247)" offset="0%"/>
        <stop stop-opacity="1" stop-color="rgb(183,201,227)" offset="100%"/>
      </linearGradient>
      <linearGradient x1="789" gradientUnits="userSpaceOnUse" x2="869" y1="567" y2="607" id="linearGradient3" spreadMethod="reflect">
        <stop stop-opacity="1" stop-color="rgb(232,238,247)" offset="0%"/>
        <stop stop-opacity="1" stop-color="rgb(183,201,227)" offset="100%"/>
      </linearGradient>
      <linearGradient x1="789" gradientUnits="userSpaceOnUse" x2="869" y1="422" y2="462" id="linearGradient4" spreadMethod="reflect">
        <stop stop-opacity="1" stop-color="rgb(232,238,247)" offset="0%"/>
        <stop stop-opacity="1" stop-color="rgb(183,201,227)" offset="100%"/>
      </linearGradient>
      <linearGradient x1="1118" gradientUnits="userSpaceOnUse" x2="1198" y1="712" y2="752" id="linearGradient5" spreadMethod="reflect">
        <stop stop-opacity="1" stop-color="rgb(232,238,247)" offset="0%"/>
        <stop stop-opacity="1" stop-color="rgb(183,201,227)" offset="100%"/>
      </linearGradient>
      <linearGradient x1="789" gradientUnits="userSpaceOnUse" x2="869" y1="712" y2="752" id="linearGradient6" spreadMethod="reflect">
        <stop stop-opacity="1" stop-color="rgb(232,238,247)" offset="0%"/>
        <stop stop-opacity="1" stop-color="rgb(183,201,227)" offset="100%"/>
      </linearGradient>
      <clipPath clipPathUnits="userSpaceOnUse" id="clipPath1">
        <path d="M0 0 L439 0 L439 364 L0 364 L0 0 Z"/>
      </clipPath>
      <clipPath clipPathUnits="userSpaceOnUse" id="clipPath2">
        <path d="M774 405 L1213 405 L1213 769 L774 769 L774 405 Z"/>
      </clipPath>
    </defs>
    <g fill="url(#linearGradient1)" text-rendering="geometricPrecision" shape-rendering="geometricPrecision" transform="matrix(1,0,0,1,-774,-405)" stroke="url(#linearGradient1)">
      <path d="M1118 422 L1198 422 L1198 462 L1118 462 Z" stroke="none" clip-path="url(#clipPath2)"/>
    </g>
    <g text-rendering="geometricPrecision" stroke-miterlimit="1.45" shape-rendering="geometricPrecision" transform="matrix(1,0,0,1,-774,-405)" stroke-linecap="butt">
      <path fill="none" d="M1118 422 L1198 422 L1198 462 L1118 462 Z" clip-path="url(#clipPath2)"/>
      <text x="1138.875" font-size="16px" y="448.2852" clip-path="url(#clipPath2)" font-family="sans-serif" stroke="none" xml:space="preserve">Node</text>
    </g>
    <g fill="url(#linearGradient2)" text-rendering="geometricPrecision" shape-rendering="geometricPrecision" transform="matrix(1,0,0,1,-774,-405)" stroke="url(#linearGradient2)">
      <path d="M1118 567 L1198 567 L1198 607 L1118 607 Z" stroke="none" clip-path="url(#clipPath2)"/>
    </g>
    <g text-rendering="geometricPrecision" stroke-miterlimit="1.45" shape-rendering="geometricPrecision" transform="matrix(1,0,0,1,-774,-405)" stroke-linecap="butt">
      <path fill="none" d="M1118 567 L1198 567 L1198 607 L1118 607 Z" clip-path="url(#clipPath2)"/>
      <text x="1135.3164" font-size="16px" y="593.2852" clip-path="url(#clipPath2)" font-family="sans-serif" stroke="none" xml:space="preserve">Scene</text>
    </g>
    <g fill="url(#linearGradient3)" text-rendering="geometricPrecision" shape-rendering="geometricPrecision" transform="matrix(1,0,0,1,-774,-405)" stroke="url(#linearGradient3)">
      <path d="M789 567 L869 567 L869 607 L789 607 Z" stroke="none" clip-path="url(#clipPath2)"/>
    </g>
    <g text-rendering="geometricPrecision" stroke-miterlimit="1.45" shape-rendering="geometricPrecision" transform="matrix(1,0,0,1,-774,-405)" stroke-linecap="butt">
      <path fill="none" d="M789 567 L869 567 L869 607 L789 607 Z" clip-path="url(#clipPath2)"/>
      <text x="796.9883" font-size="16px" y="583.4844" clip-path="url(#clipPath2)" font-family="sans-serif" stroke="none" xml:space="preserve">Graphics</text>
      <text x="806.3164" font-size="16px" y="603.0859" clip-path="url(#clipPath2)" font-family="sans-serif" stroke="none" xml:space="preserve">Scene</text>
    </g>
    <g fill="url(#linearGradient4)" text-rendering="geometricPrecision" shape-rendering="geometricPrecision" transform="matrix(1,0,0,1,-774,-405)" stroke="url(#linearGradient4)">
      <path d="M789 422 L869 422 L869 462 L789 462 Z" stroke="none" clip-path="url(#clipPath2)"/>
    </g>
    <g text-rendering="geometricPrecision" stroke-miterlimit="1.45" shape-rendering="geometricPrecision" transform="matrix(1,0,0,1,-774,-405)" stroke-linecap="butt">
      <path fill="none" d="M789 422 L869 422 L869 462 L789 462 Z" clip-path="url(#clipPath2)"/>
      <text x="796.9883" font-size="16px" y="438.4844" clip-path="url(#clipPath2)" font-family="sans-serif" stroke="none" xml:space="preserve">Graphics</text>
      <text x="809.875" font-size="16px" y="458.0859" clip-path="url(#clipPath2)" font-family="sans-serif" stroke="none" xml:space="preserve">Node</text>
    </g>
    <g fill="url(#linearGradient5)" text-rendering="geometricPrecision" shape-rendering="geometricPrecision" transform="matrix(1,0,0,1,-774,-405)" stroke="url(#linearGradient5)">
      <path d="M1118 712 L1198 712 L1198 752 L1118 752 Z" stroke="none" clip-path="url(#clipPath2)"/>
    </g>
    <g text-rendering="geometricPrecision" stroke-miterlimit="1.45" shape-rendering="geometricPrecision" transform="matrix(1,0,0,1,-774,-405)" stroke-linecap="butt">
      <path fill="none" d="M1118 712 L1198 712 L1198 752 L1118 752 Z" clip-path="url(#clipPath2)"/>
      <text x="1140.6602" font-size="16px" y="738.2852" clip-path="url(#clipPath2)" font-family="sans-serif" stroke="none" xml:space="preserve">Main</text>
    </g>
    <g fill="url(#linearGradient6)" text-rendering="geometricPrecision" shape-rendering="geometricPrecision" transform="matrix(1,0,0,1,-774,-405)" stroke="url(#linearGradient6)">
      <path d="M789 712 L869 712 L869 752 L789 752 Z" stroke="none" clip-path="url(#clipPath2)"/>
    </g>
    <g text-rendering="geometricPrecision" stroke-miterlimit="1.45" shape-rendering="geometricPrecision" transform="matrix(1,0,0,1,-774,-405)" stroke-linecap="butt">
      <path fill="none" d="M789 712 L869 712 L869 752 L789 752 Z" clip-path="url(#clipPath2)"/>
      <text x="811.6602" font-size="16px" y="728.4844" clip-path="url(#clipPath2)" font-family="sans-serif" stroke="none" xml:space="preserve">Main</text>
      <text x="800.5469" font-size="16px" y="748.0859" clip-path="url(#clipPath2)" font-family="sans-serif" stroke="none" xml:space="preserve">Window</text>
    </g>
    <g stroke-linecap="butt" transform="matrix(1,0,0,1,-774,-405)" fill="silver" text-rendering="geometricPrecision" shape-rendering="geometricPrecision" stroke="silver" stroke-width="3" stroke-miterlimit="1.45">
      <path fill="none" d="M1169.9156 462.0035 L1169.9156 556.9764" clip-path="url(#clipPath2)"/>
    </g>
    <g stroke-linecap="butt" transform="matrix(1,0,0,1,-774,-405)" fill="silver" text-rendering="geometricPrecision" shape-rendering="geometricPrecision" stroke="silver" stroke-width="3" stroke-miterlimit="1.45">
      <path d="M1169.9156 566.9764 L1176.1656 551.9764 L1169.9156 555.7264 L1163.6656 551.9764 Z" stroke="none" clip-path="url(#clipPath2)"/>
      <path fill="none" d="M1145.7448 558.2305 L1145.7448 461.9859" clip-path="url(#clipPath2)"/>
      <path fill="white" d="M1145.7448 566.9805 L1139.4948 558.2305 L1145.7448 549.4805 L1151.9948 558.2305 Z" clip-path="url(#clipPath2)" stroke="none"/>
      <path fill="none" d="M1145.7448 566.9805 L1139.4948 558.2305 L1145.7448 549.4805 L1151.9948 558.2305 Z" stroke-width="1" clip-path="url(#clipPath2)"/>
      <path fill="none" d="M868.9603 587 L1108.0242 587" clip-path="url(#clipPath2)"/>
      <path d="M1118.0242 587 L1103.0242 580.75 L1106.7742 587 L1103.0242 593.25 Z" clip-path="url(#clipPath2)" stroke="none"/>
      <path fill="none" d="M868.9603 442 L1108.0242 442" clip-path="url(#clipPath2)"/>
      <path d="M1118.0242 442 L1103.0242 435.75 L1106.7742 442 L1103.0242 448.25 Z" clip-path="url(#clipPath2)" stroke="none"/>
      <path fill="none" d="M829 461.9728 L829 557.0209" clip-path="url(#clipPath2)"/>
      <path d="M829 567.0209 L835.25 552.0209 L829 555.7709 L822.75 552.0209 Z" clip-path="url(#clipPath2)" stroke="none"/>
      <path fill="none" d="M1158 711.9988 L1158 616.9888" clip-path="url(#clipPath2)"/>
      <path d="M1158 606.9888 L1151.75 621.9888 L1158 618.2388 L1164.25 621.9888 Z" clip-path="url(#clipPath2)" stroke="none"/>
      <path fill="none" d="M1118.0397 732 L878.9758 732" clip-path="url(#clipPath2)"/>
      <path d="M868.9758 732 L883.9758 738.25 L880.2258 732 L883.9758 725.75 Z" clip-path="url(#clipPath2)" stroke="none"/>
      <path fill="none" d="M829 711.9988 L829 616.9888" clip-path="url(#clipPath2)"/>
      <path d="M829 606.9888 L822.75 621.9888 L829 618.2388 L835.25 621.9888 Z" clip-path="url(#clipPath2)" stroke="none"/>
    </g>
  </g>
</svg>
